<?xml version="1.0" encoding="utf-8"?>
<!-- Generator: Adobe Illustrator 22.1.0, SVG Export Plug-In . SVG Version: 6.00 Build 0)  -->
<svg version="1.1" id="Layer_1" xmlns="http://www.w3.org/2000/svg" xmlns:xlink="http://www.w3.org/1999/xlink" x="0px" y="0px"
	 viewBox="0 0 350 200" style="enable-background:new 0 0 350 200;" xml:space="preserve">
<style type="text/css">
	.st0{fill:#010101;}
	.st1{fill:#F04846;}
</style>
<g>
	<path class="st0" d="M34.9,61.4c0,4.3-3,7-7.3,7s-7.2-2.7-7.2-7c0-4.2,2.9-6.9,7.2-6.9S34.9,57.2,34.9,61.4z M20.8,119V72.5h13.7
		V119H20.8z"/>
	<path class="st0" d="M61.3,101.1c0,1.6,0,3.1,0.1,4.4c0.3,4.6,1.9,5.7,8.9,5.2v8.7c-2.8,0.4-5.5,0.7-8.5,0.7
		c-10.2,0-13.5-3.3-14-10.1c-0.2-2.4-0.2-4.4-0.2-7.1V81.6h-7.1v-8.7h7.1V61.2h13.7v11.7h9.8v8.7h-9.8V101.1z"/>
	<path class="st0" d="M92,61.4c0,4.3-3,7-7.3,7c-4.4,0-7.2-2.7-7.2-7c0-4.2,2.9-6.9,7.2-6.9C89,54.5,92,57.2,92,61.4z M77.8,119
		V72.5h13.7V119H77.8z"/>
	<path class="st0" d="M147.1,92.7V119h-13.7V94.8c0-1.7,0-4.1-0.2-6.4c-0.3-4.7-3-7.7-8.3-7.7c-5.4,0-9.4,4.9-9.4,16.7V119h-13.7
		V72.5h13.7v7.3l3.8-5.6c3.1-2.1,6.5-3,10.8-3c9.8,0,15.4,4.7,16.5,12.8C147,86.4,147.1,89,147.1,92.7z"/>
	<path class="st0" d="M200.3,99.3h-32.6c0.8,8.9,4.6,11.5,9.8,11.5c4.8,0,8-2.6,8.8-7h13.5c-2.5,10.7-11.2,16.4-22.6,16.4
		c-13,0-23.2-7.9-23.2-24.3c0-13.9,9.3-24.6,24.1-24.6c14.8,0,22.5,11.2,22.5,23.6C200.6,96.1,200.5,97.6,200.3,99.3z M168.1,90.6
		h18.3c-0.8-6.5-3.8-9.9-8.9-9.9C172.6,80.7,169.2,83.7,168.1,90.6z"/>
	<path class="st0" d="M237.3,71.6v11.1c-10.8-0.7-15.4,3.7-15.4,16.8V119h-13.7V72.5h13.7v8.9l3.5-6.5c2.4-2.4,5.8-3.7,8.5-3.7
		C235.3,71.3,236.2,71.5,237.3,71.6z"/>
	<path class="st0" d="M287.2,119h-13.6V111l-3.9,6.2c-3.1,2.1-6.5,3-10.8,3c-9.6,0-15.3-5.4-16.4-11.8c-0.3-2.4-0.4-4.9-0.4-8.6
		V72.5h13.6v24.3c0,1.5,0.1,4,0.3,6.4c0.6,4.7,3.1,7.5,8.4,7.5c5.6,0,9.2-4.8,9.2-13.3V72.5h13.6V119z"/>
	<path class="st0" d="M334.2,86h-13.5c-0.8-3.8-2.8-6-6.2-6c-3,0-4.8,1.8-4.8,4.3c0,3.1,2.5,4.9,10.8,7c9,2.3,14.7,6,14.7,14.7
		c0,9.7-8.8,14.2-19.7,14.2c-11.9,0-20.1-5.1-21.4-15.5h13.5c1,4.4,4.1,6.7,7.9,6.7c3.3,0,5.9-1.4,5.9-4.4c0-3.3-3-5.1-11.2-7.1
		c-8.7-2.2-14.4-6.1-14.4-14c0-9.1,7.7-14.6,19.4-14.6C326.6,71.3,333.1,77.6,334.2,86z"/>
</g>
<g>
	<circle class="st1" cx="18.7" cy="140.2" r="6"/>
	<circle class="st1" cx="39.7" cy="140.2" r="6"/>
	<circle class="st1" cx="60.7" cy="140.2" r="6"/>
	<circle class="st1" cx="81.8" cy="140.2" r="6"/>
	<circle class="st1" cx="102.8" cy="140.2" r="6"/>
	<circle class="st1" cx="123.8" cy="140.2" r="6"/>
	<circle class="st1" cx="144.8" cy="140.2" r="6"/>
	<circle class="st1" cx="165.8" cy="140.2" r="6"/>
	<circle class="st1" cx="186.8" cy="140.2" r="6"/>
	<circle class="st1" cx="207.9" cy="140.2" r="6"/>
	<circle class="st1" cx="228.9" cy="140.2" r="6"/>
	<circle class="st1" cx="249.9" cy="140.2" r="6"/>
	<circle class="st1" cx="270.9" cy="140.2" r="6"/>
	<circle class="st1" cx="291.9" cy="140.2" r="6"/>
	<circle class="st1" cx="312.9" cy="140.2" r="6"/>
	<circle class="st1" cx="334" cy="140.2" r="6"/>
</g>
</svg>
